<svg xmlns="http://www.w3.org/2000/svg" xmlns:xlink="http://www.w3.org/1999/xlink" viewBox="0 0 24 30" version="1.1" x="0px" y="0px"><title>icon/email-solid</title><desc>Created with Sketch.</desc><g stroke="none" stroke-width="1" fill="none" fill-rule="evenodd"><path d="M14.916,13.0039 L22,7.4939 L22,17.0049 C22,18.6589 20.654,20.0049 19,20.0049 L5,20.0049 C3.346,20.0049 2,18.6589 2,17.0049 L2,7.4939 L9.084,13.0039 C9.942,13.6709 10.971,14.0049 12,14.0049 C13.029,14.0049 14.058,13.6709 14.916,13.0039 Z M10.3115,11.4248 L2.5015,5.3498 C3.0395,4.5408 3.9575,4.0048 4.9995,4.0048 L18.9995,4.0048 C20.0425,4.0048 20.9605,4.5408 21.4985,5.3498 L13.6885,11.4248 C12.6945,12.1978 11.3055,12.1978 10.3115,11.4248 Z" fill="#000000"/></g></svg>